<?xml version="1.0" encoding="UTF-8" standalone="no"?>
<svg
   width="110"
   height="135"
   version="1.1"
   viewBox="0 0 110 135"
   xml:space="preserve"
   id="svg13"
   sodipodi:docname="openSUSE logo.svg"
   inkscape:version="1.3.2 (091e20ef0f, 2023-11-25)"
   xmlns:inkscape="http://www.inkscape.org/namespaces/inkscape"
   xmlns:sodipodi="http://sodipodi.sourceforge.net/DTD/sodipodi-0.dtd"
   xmlns="http://www.w3.org/2000/svg"
   xmlns:svg="http://www.w3.org/2000/svg"
   xmlns:rdf="http://www.w3.org/1999/02/22-rdf-syntax-ns#"
   xmlns:cc="http://creativecommons.org/ns#"
   xmlns:dc="http://purl.org/dc/elements/1.1/"><sodipodi:namedview
     id="namedview13"
     pagecolor="#505050"
     bordercolor="#eeeeee"
     borderopacity="1"
     inkscape:showpageshadow="0"
     inkscape:pageopacity="0"
     inkscape:pagecheckerboard="0"
     inkscape:deskcolor="#505050"
     inkscape:zoom="4"
     inkscape:cx="103.75"
     inkscape:cy="59.5"
     inkscape:window-width="1920"
     inkscape:window-height="1004"
     inkscape:window-x="0"
     inkscape:window-y="0"
     inkscape:window-maximized="1"
     inkscape:current-layer="g13" /><title
     id="title1">openSUSE logo</title><defs
     id="defs1"><clipPath
       id="vlpa"><path
         d="M 0,200.3 H 320 V 0 H 0 Z"
         id="path1" /></clipPath></defs><g
     transform="matrix(1.25,0,0,-1.25,0,250.4)"
     id="g13"><g
       clip-path="url(#vlpa)"
       id="g12"><g
         transform="translate(243.1688,163.4512)"
         id="g2"><path
           d="m -261.79786,32.775835 1.60645,0.34464 c 25.57622,5.45882 48.45433,3.82184 67.99131,-4.878439 6.14164,-2.743698 18.35238,-10.525455 25.14824,-22.3824219 2.98549,-5.16738804 5.0934,-11.221175 6.10497,-17.4870691 2.28185,-14.158653 -2.18091,-29.325475 -11.91739,-40.562888 -13.7352,-15.863528 -31.64447,-20.106098 -47.90715,-11.370308 -11.21078,6.03658 -20.79111,21.529845 -16.42362,38.370184 3.54821,13.70116 14.05227,21.5093381 22.92898,23.1570811 7.70731,1.42204896 15.04177,-0.849535 20.13213,-6.207135 8.99836,-9.5354461 5.71949,-22.3912381 -0.10764,-28.0462521 -1.69691,-1.638718 -3.68586,-2.989417 -6.21156,-4.219027 -0.88553,-0.452013 -1.778,-0.814795 -2.91102,-1.060928 l -0.34801,-0.08445 -0.22986,-0.04125 0.0738,0.0171 c -2.20744,-0.378727 -4.43281,0.323481 -5.96038,1.905312 -0.4168,0.431607 -0.77871,0.927316 -1.08012,1.487029 -1.61643,3.054383 -0.65256,6.778017 2.22249,8.693889 l 0.40588,0.24044 0.57869,0.294711 0.86348,0.402887 c 1.66468,0.968127 2.69957,1.911867 2.92158,2.112373 0.64172,0.704516 3.03141,4.958414 -0.52453,8.640711 l -0.0487,0.05043 c -1.30597,1.352362 -2.76461,1.777395 -3.5647,2.007063 -2.62973,0.630057 -7.04808,-0.525494 -10.58942,-4.595937 -4.65339,-5.343112 -5.80092,-11.483608 -3.48124,-18.736994 2.15958,-6.740675 8.1747,-11.790515 15.32763,-12.834752 7.09592,-1.028385 14.38738,2.664013 21.09118,10.693404 6.7336,8.113726 8.91745,18.60674 5.96254,28.806845 -2.88247,9.9753671 -10.25111,17.9873001 -19.24944,20.9194761 -21.5462,7.0380529 -35.81591,-7.033954 -42.40161,-16.034993 -9.73682,-13.3244111 -12.62541,-36.9649741 -5.3128,-53.9808971 1.15544,-2.72244 2.28692,-4.67146 3.33809,-6.43946 l -18.69571,0.27539 z"
           style="fill:#729b79;fill-opacity:1"
           id="path2"
           sodipodi:nodetypes="ccccccccccccccccsccccccsscccccccccccc" /></g></g></g><metadata
     id="metadata13"><rdf:RDF><cc:Work
         rdf:about=""><dc:title>openSUSE logo</dc:title></cc:Work></rdf:RDF></metadata></svg>
